
        <svg xmlns="http://www.w3.org/2000/svg" xmlns:xlink="http://www.w3.org/1999/xlink" version="1.1" width="3162.1378171445735" 
        height="986.6308954774647" viewBox="0 0 3162.1378171445735 986.6308954774647">
			
			<g transform="scale(8.106890857228645) translate(10, 10)">
				<defs id="SvgjsDefs1196"></defs><g id="SvgjsG1197" featureKey="symbolFeature-0" transform="matrix(1.1882716049382718,0,0,1.1882716049382718,-5.941357458079303,-8.562242484387058)" fill="#d6843e"><g xmlns="http://www.w3.org/2000/svg" transform="translate(0,-952.36218)"><path d="m 35.362826,990.64673 -1.231699,0.0573 -23.230427,1.2317 -5.9006999,0.31509 4.5830681,3.72374 18.1031188,14.63725 0.945258,0.802 1.174411,-0.4011 13.520051,-4.4111 2.978994,-0.974 -1.833227,-2.5207 -8.364099,-11.45762 z" style="text-indent:0;text-transform:none;direction:ltr;block-progression:tb;baseline-shift:baseline;color:;enable-background:accumulate;" fill="#d6843e" fill-opacity="1" stroke="none" marker="none" visibility="visible" display="inline" overflow="visible"></path><path d="m 50,959.5678 -2.119669,5.49969 -8.364099,21.71228 -0.458307,1.14577 0.744748,1.00254 8.3641,11.54362 1.833227,2.5206 1.833227,-2.5206 8.3641,-11.54362 0.744748,-1.00254 -0.458307,-1.14577 -8.364099,-21.71228 z" style="text-indent:0;text-transform:none;direction:ltr;block-progression:tb;baseline-shift:baseline;color:;enable-background:accumulate;" fill="#d6843e" fill-opacity="1" stroke="none" marker="none" visibility="visible" display="inline" overflow="visible"></path><path d="m 64.637174,990.61809 -0.744749,1.00255 -8.364099,11.48626 -1.833227,2.5207 2.978994,0.974 13.520051,4.4111 1.174411,0.4011 0.945258,-0.802 L 90.416932,995.97455 95,992.25081 89.0993,991.93572 65.868873,990.67538 z" style="text-indent:0;text-transform:none;direction:ltr;block-progression:tb;baseline-shift:baseline;color:;enable-background:accumulate;" fill="#d6843e" fill-opacity="1" stroke="none" marker="none" visibility="visible" display="inline" overflow="visible"></path><path d="m 52.26289,1009.9815 0,3.151 0,14.2075 0,1.2603 1.059834,0.6588 19.535328,12.6607 4.955443,3.2368 -1.518142,-5.7289 -6.015277,-22.5142 -0.34373,-1.2032 -1.174411,-0.3723 -13.520051,-4.3825 z" style="text-indent:0;text-transform:none;direction:ltr;block-progression:tb;baseline-shift:baseline;color:;enable-background:accumulate;" fill="#d6843e" fill-opacity="1" stroke="none" marker="none" visibility="visible" display="inline" overflow="visible"></path><path d="m 47.73711,1009.9815 -2.978994,0.974 -13.520051,4.3825 -1.174411,0.3723 -0.34373,1.2032 -6.015277,22.5142 -1.518142,5.7289 4.955443,-3.2368 19.535328,-12.6607 1.059834,-0.6588 0,-1.2603 0,-14.2075 z" style="text-indent:0;text-transform:none;direction:ltr;block-progression:tb;baseline-shift:baseline;color:;enable-background:accumulate;" fill="#d6843e" fill-opacity="1" stroke="none" marker="none" visibility="visible" display="inline" overflow="visible"></path></g></g><g id="SvgjsG1198" featureKey="nameFeature-0" transform="matrix(1.743083223627668,0,0,1.743083223627668,126.72110611902612,6.059128653126304)" fill="#000080"><path d="M23.04 40 l-2.28 -6.08 l-12.6 0 l-2.32 6.08 l-5.68 0 l10.72 -28 l7.12 0 l10.76 28 l-5.72 0 z M9.96 29.08 l8.96 0 l-4.48 -11.84 z M44.62 40.56 c-6.84 0 -11.36 -4.12 -12.92 -8.48 l5.24 -1.6 c1.12 2.92 3.96 5.24 8 5.24 c3.28 0 5.32 -1.68 5.32 -3.52 c0 -1.48 -1 -2.48 -3.68 -3.36 l-7.16 -2.24 c-3.68 -1.16 -6.36 -3.52 -6.32 -7.12 c-0.04 -4.36 4.2 -8.04 10.04 -8.04 c6.04 0 10.52 3.32 12.04 7.2 l-5.08 1.48 c-1.16 -2.28 -3.76 -3.84 -6.92 -3.84 c-2.76 0 -4.52 1.4 -4.52 3.04 c0 1.24 0.84 2.08 2.68 2.64 l6.96 2.24 c4.28 1.32 7.52 3.12 7.52 7.68 c0 4.8 -4.48 8.68 -11.2 8.68 z M83.88 12 l0 4.96 l-9.4 0 l0 23.04 l-5.48 0 l0 -23.04 l-9.4 0 l0 -4.96 l24.28 0 z M109.42 16.96 l-15.28 0 l0 6.4 l13.24 0 l0 4.8 l-13.24 0 l0 6.88 l15.24 0 l0 4.96 l-20.6 0 l0 -28 l20.64 0 l0 4.96 z M133.28 40 l-6.36 -9.8 l-5.96 0 l0 9.8 l-5.44 0 l0 -28 l13.64 0 c6.08 0 9.6 4.68 9.6 9.12 c0 3.68 -2.16 7.16 -6.12 8.52 l6.96 10.36 l-6.32 0 z M120.96000000000001 16.92 l0 8.48 l7.84 0 c2.84 0 4.64 -1.96 4.64 -4.28 c0 -2.24 -1.84 -4.2 -4.44 -4.2 l-8.04 0 z"></path></g>
			</g>
		</svg>
	