<svg width="1200" height="1200" xmlns="http://www.w3.org/2000/svg" xmlns:xlink="http://www.w3.org/1999/xlink" version="1.1"><g transform="scale(12) translate(4.76837158203125e-7, -0.000030517578125)">                        <g fill="#d6843e"><g xmlns="http://www.w3.org/2000/svg" transform="translate(0,-952.36218)"><path d="m 35.362826,990.64673 -1.231699,0.0573 -23.230427,1.2317 -5.9006999,0.31509 4.5830681,3.72374 18.1031188,14.63725 0.945258,0.802 1.174411,-0.4011 13.520051,-4.4111 2.978994,-0.974 -1.833227,-2.5207 -8.364099,-11.45762 z" style="text-indent:0;text-transform:none;direction:ltr;block-progression:tb;baseline-shift:baseline;color:;enable-background:accumulate;" fill-opacity="1" stroke="none" marker="none" visibility="visible" display="inline" overflow="visible"/><path d="m 50,959.5678 -2.119669,5.49969 -8.364099,21.71228 -0.458307,1.14577 0.744748,1.00254 8.3641,11.54362 1.833227,2.5206 1.833227,-2.5206 8.3641,-11.54362 0.744748,-1.00254 -0.458307,-1.14577 -8.364099,-21.71228 z" style="text-indent:0;text-transform:none;direction:ltr;block-progression:tb;baseline-shift:baseline;color:;enable-background:accumulate;" fill-opacity="1" stroke="none" marker="none" visibility="visible" display="inline" overflow="visible"/><path d="m 64.637174,990.61809 -0.744749,1.00255 -8.364099,11.48626 -1.833227,2.5207 2.978994,0.974 13.520051,4.4111 1.174411,0.4011 0.945258,-0.802 L 90.416932,995.97455 95,992.25081 89.0993,991.93572 65.868873,990.67538 z" style="text-indent:0;text-transform:none;direction:ltr;block-progression:tb;baseline-shift:baseline;color:;enable-background:accumulate;" fill-opacity="1" stroke="none" marker="none" visibility="visible" display="inline" overflow="visible"/><path d="m 52.26289,1009.9815 0,3.151 0,14.2075 0,1.2603 1.059834,0.6588 19.535328,12.6607 4.955443,3.2368 -1.518142,-5.7289 -6.015277,-22.5142 -0.34373,-1.2032 -1.174411,-0.3723 -13.520051,-4.3825 z" style="text-indent:0;text-transform:none;direction:ltr;block-progression:tb;baseline-shift:baseline;color:;enable-background:accumulate;" fill-opacity="1" stroke="none" marker="none" visibility="visible" display="inline" overflow="visible"/><path d="m 47.73711,1009.9815 -2.978994,0.974 -13.520051,4.3825 -1.174411,0.3723 -0.34373,1.2032 -6.015277,22.5142 -1.518142,5.7289 4.955443,-3.2368 19.535328,-12.6607 1.059834,-0.6588 0,-1.2603 0,-14.2075 z" style="text-indent:0;text-transform:none;direction:ltr;block-progression:tb;baseline-shift:baseline;color:;enable-background:accumulate;" fill-opacity="1" stroke="none" marker="none" visibility="visible" display="inline" overflow="visible"/></g></g>        </g></svg>