<svg width="16" height="11" viewBox="0 0 16 11" fill="none" xmlns="http://www.w3.org/2000/svg">
<g clip-path="url(#clip0_57_43)">
<g clip-path="url(#clip1_57_43)">
<g clip-path="url(#clip2_57_43)">
<path d="M13.9268 6.01892L10.4268 9.51892C10.0986 9.87439 9.52442 9.87439 9.19629 9.51892C8.84082 9.19079 8.84082 8.61657 9.19629 8.28845L11.1924 6.26501H1.0752C0.583007 6.26501 0.200195 5.8822 0.200195 5.39001C0.200195 4.87048 0.583007 4.51501 1.0752 4.51501H11.1924L9.19629 2.51892C8.84082 2.19079 8.84082 1.61658 9.19629 1.28845C9.52442 0.932983 10.0986 0.932983 10.4268 1.28845L13.9268 4.78845C14.2822 5.11657 14.2822 5.69079 13.9268 6.01892Z" fill="white"/>
</g>
</g>
</g>
<defs>
<clipPath id="clip0_57_43">
<rect width="15" height="10" fill="white" transform="translate(0.200195 0.640015)"/>
</clipPath>
<clipPath id="clip1_57_43">
<rect width="15" height="10" fill="white" transform="translate(0.200195 0.640015)"/>
</clipPath>
<clipPath id="clip2_57_43">
<rect width="15" height="10" fill="white" transform="translate(0.200195 0.640015)"/>
</clipPath>
</defs>
</svg>
