<svg width="90" height="82" viewBox="0 0 90 82" fill="none" xmlns="http://www.w3.org/2000/svg">
<g filter="url(#filter0_d_17_85)">
<path d="M83.4375 61.5H14.25V12.8125C14.25 11.3967 13.1033 10.25 11.6875 10.25H6.5625C5.14672 10.25 4 11.3967 4 12.8125V66.625C4 69.455 6.29504 71.75 9.125 71.75H83.4375C84.8533 71.75 86 70.6033 86 69.1875V64.0625C86 62.6467 84.8533 61.5 83.4375 61.5ZM78.3125 15.375H59.4045C55.9803 15.375 54.265 19.515 56.6866 21.9366L61.8757 27.1257L50.125 38.8779L38.3743 27.1273C36.3724 25.1253 33.1276 25.1253 31.1273 27.1273L20.1261 38.1284C19.1252 39.1294 19.1252 40.7518 20.1261 41.7527L23.7489 45.3755C24.7498 46.3764 26.3722 46.3764 27.3732 45.3755L34.75 37.9971L46.5007 49.7477C48.5026 51.7497 51.7474 51.7497 53.7477 49.7477L69.1227 34.3727L74.3118 39.5618C76.7334 41.9834 80.8734 40.2681 80.8734 36.8439V17.9375C80.875 16.5217 79.7283 15.375 78.3125 15.375Z" fill="black"/>
</g>
<defs>
<filter id="filter0_d_17_85" x="0" y="0" width="90" height="90" filterUnits="userSpaceOnUse" color-interpolation-filters="sRGB">
<feFlood flood-opacity="0" result="BackgroundImageFix"/>
<feColorMatrix in="SourceAlpha" type="matrix" values="0 0 0 0 0 0 0 0 0 0 0 0 0 0 0 0 0 0 127 0" result="hardAlpha"/>
<feOffset dy="4"/>
<feGaussianBlur stdDeviation="2"/>
<feComposite in2="hardAlpha" operator="out"/>
<feColorMatrix type="matrix" values="0 0 0 0 0 0 0 0 0 0 0 0 0 0 0 0 0 0 0.25 0"/>
<feBlend mode="normal" in2="BackgroundImageFix" result="effect1_dropShadow_17_85"/>
<feBlend mode="normal" in="SourceGraphic" in2="effect1_dropShadow_17_85" result="shape"/>
</filter>
</defs>
</svg>
