<svg width="16" height="13" viewBox="0 0 16 13" fill="none" xmlns="http://www.w3.org/2000/svg">
<path d="M15.6875 4.77881C15.8125 4.68506 16 4.77881 16 4.93506V11.3101C16 12.1538 15.3125 12.8101 14.5 12.8101H1.5C0.65625 12.8101 0 12.1538 0 11.3101V4.93506C0 4.77881 0.15625 4.68506 0.28125 4.77881C1 5.34131 1.90625 6.02881 5.09375 8.34131C5.75 8.81006 6.875 9.84131 8 9.84131C9.09375 9.84131 10.25 8.81006 10.875 8.34131C14.0625 6.02881 14.9688 5.34131 15.6875 4.77881ZM8 8.81006C7.25 8.84131 6.21875 7.90381 5.6875 7.52881C1.53125 4.52881 1.21875 4.24756 0.28125 3.49756C0.09375 3.37256 0 3.15381 0 2.90381V2.31006C0 1.49756 0.65625 0.810059 1.5 0.810059H14.5C15.3125 0.810059 16 1.49756 16 2.31006V2.90381C16 3.15381 15.875 3.37256 15.6875 3.49756C14.75 4.24756 14.4375 4.52881 10.2812 7.52881C9.75 7.90381 8.71875 8.84131 8 8.81006Z" fill="#C4F500"/>
</svg>
