<svg width="86" height="86" viewBox="0 0 86 86" fill="none" xmlns="http://www.w3.org/2000/svg">
<g filter="url(#filter0_d_16_3)">
<path d="M7.32135 0.0197789C6.3124 0.358892 5.4422 1.01888 4.84366 1.89893C4.24513 2.77899 3.95115 3.83074 4.00663 4.89354V53.6312C4.00663 54.9238 4.5202 56.1634 5.43436 57.0774C6.34852 57.9915 7.58839 58.5049 8.88121 58.5049H33.2541V68.2525H23.505C18.1429 68.2525 13.7558 72.6389 13.7558 78H72.2508C72.2508 72.6389 67.8637 68.2525 62.5017 68.2525H52.7525V58.5049H77.1254C78.4182 58.5049 79.6581 57.9915 80.5723 57.0774C81.4864 56.1634 82 54.9238 82 53.6312V4.89354C82 3.60094 81.4864 2.36128 80.5723 1.44727C79.6581 0.533263 78.4182 0.0197789 77.1254 0.0197789L8.88121 0.0197789C8.58933 -0.00659296 8.29567 -0.00659296 8.00379 0.0197789C7.80898 0.0080713 7.61365 0.0080713 7.41884 0.0197789L7.32135 0.0197789ZM13.7558 9.76731H72.2508V48.7574H13.7558V9.76731Z" fill="black"/>
</g>
<defs>
<filter id="filter0_d_16_3" x="0" y="0" width="86" height="86" filterUnits="userSpaceOnUse" color-interpolation-filters="sRGB">
<feFlood flood-opacity="0" result="BackgroundImageFix"/>
<feColorMatrix in="SourceAlpha" type="matrix" values="0 0 0 0 0 0 0 0 0 0 0 0 0 0 0 0 0 0 127 0" result="hardAlpha"/>
<feOffset dy="4"/>
<feGaussianBlur stdDeviation="2"/>
<feComposite in2="hardAlpha" operator="out"/>
<feColorMatrix type="matrix" values="0 0 0 0 0 0 0 0 0 0 0 0 0 0 0 0 0 0 0.25 0"/>
<feBlend mode="normal" in2="BackgroundImageFix" result="effect1_dropShadow_16_3"/>
<feBlend mode="normal" in="SourceGraphic" in2="effect1_dropShadow_16_3" result="shape"/>
</filter>
</defs>
</svg>
