<svg width="12" height="17" viewBox="0 0 12 17" fill="none" xmlns="http://www.w3.org/2000/svg">
<path d="M5.375 16.3076C0.8125 9.74512 0 9.05762 0 6.62012C0 3.30762 2.65625 0.620117 6 0.620117C9.3125 0.620117 12 3.30762 12 6.62012C12 9.05762 11.1562 9.74512 6.59375 16.3076C6.3125 16.7451 5.65625 16.7451 5.375 16.3076ZM6 9.12012C7.375 9.12012 8.5 8.02637 8.5 6.62012C8.5 5.24512 7.375 4.12012 6 4.12012C4.59375 4.12012 3.5 5.24512 3.5 6.62012C3.5 8.02637 4.59375 9.12012 6 9.12012Z" fill="#C4F500"/>
</svg>
