<svg width="142" height="93" viewBox="0 0 142 93" fill="none" xmlns="http://www.w3.org/2000/svg">
<g filter="url(#filter0_d_16_38)">
<path d="M48.4791 80.3739C54.7087 80.3739 59.7588 75.1824 59.7588 68.7779C59.7588 62.3734 54.7087 57.1819 48.4791 57.1819C42.2494 57.1819 37.1993 62.3734 37.1993 68.7779C37.1993 75.1824 42.2494 80.3739 48.4791 80.3739Z" stroke="black" stroke-width="8.96369" stroke-miterlimit="1.5" stroke-linecap="round" stroke-linejoin="round"/>
<path d="M104.878 80.3739C111.107 80.3739 116.157 75.1824 116.157 68.7779C116.157 62.3734 111.107 57.1819 104.878 57.1819C98.6478 57.1819 93.5979 62.3734 93.5979 68.7779C93.5979 75.1824 98.6478 80.3739 104.878 80.3739Z" stroke="black" stroke-width="8.96369" stroke-miterlimit="1.5" stroke-linecap="round" stroke-linejoin="round"/>
<path d="M60.0407 68.778H87.958V8.4788C87.958 6.55752 86.4432 5 84.5741 5H9" stroke="black" stroke-width="8.96369" stroke-linecap="round"/>
<path d="M35.2254 68.778H23.6637C21.7948 68.778 20.2798 67.2207 20.2798 65.2992V36.889" stroke="black" stroke-width="8.96369" stroke-linecap="round"/>
<path d="M14.6398 22.394H37.1992" stroke="black" stroke-width="8.96369" stroke-linecap="round" stroke-linejoin="round"/>
<path d="M87.9581 22.394H119.598C120.935 22.394 122.147 23.2036 122.691 24.4599L132.785 47.8101C132.978 48.2554 133.077 48.7366 133.077 49.2231V65.2992C133.077 67.2206 131.562 68.778 129.693 68.778H118.977" stroke="black" stroke-width="8.96369" stroke-linecap="round"/>
<path d="M87.9581 68.778H93.5979" stroke="black" stroke-width="8.96369" stroke-linecap="round"/>
</g>
<defs>
<filter id="filter0_d_16_38" x="0.518127" y="0.518127" width="141.041" height="92.3376" filterUnits="userSpaceOnUse" color-interpolation-filters="sRGB">
<feFlood flood-opacity="0" result="BackgroundImageFix"/>
<feColorMatrix in="SourceAlpha" type="matrix" values="0 0 0 0 0 0 0 0 0 0 0 0 0 0 0 0 0 0 127 0" result="hardAlpha"/>
<feOffset dy="4"/>
<feGaussianBlur stdDeviation="2"/>
<feComposite in2="hardAlpha" operator="out"/>
<feColorMatrix type="matrix" values="0 0 0 0 0 0 0 0 0 0 0 0 0 0 0 0 0 0 0.25 0"/>
<feBlend mode="normal" in2="BackgroundImageFix" result="effect1_dropShadow_16_38"/>
<feBlend mode="normal" in="SourceGraphic" in2="effect1_dropShadow_16_38" result="shape"/>
</filter>
</defs>
</svg>
