<svg width="179" height="76" viewBox="0 0 179 76" fill="none" xmlns="http://www.w3.org/2000/svg">
<g clip-path="url(#clip0_25_20)">
<path d="M41.7132 23.2307C42.8937 23.4157 43.1315 23.1691 43.2901 22.0503C43.6777 19.4426 44.453 16.9055 45.5894 14.5269C47.1399 11.3555 49.5889 7.86689 53.0423 5.52354C56.522 3.27711 60.3542 1.62972 64.3714 0.651862C67.0847 0.0528128 69.8685 -0.132188 72.6347 0.10567C77.6033 0.554957 80.3519 1.9733 81.735 3.80568C82.1931 4.41354 82.4662 5.14473 82.5278 5.91116C82.5719 6.82736 82.1755 8.01665 80.854 9.17951C79.5414 10.3512 76.8545 11.7343 73.1457 12.9764C69.2959 14.2538 64.0366 15.6105 58.7861 16.8174C55.7468 17.5045 52.7428 18.3679 49.8004 19.3986C46.3294 20.5791 45.2811 24.0324 47.4394 25.0896C49.8708 26.2788 52.1349 27.7677 54.1963 29.512C57.4999 32.1372 60.5216 35.106 63.1997 38.3656C66.468 42.3563 71.8154 49.9677 73.7271 57.3589C75.859 65.4725 74.5288 73.1633 69.939 75.3128C65.4373 77.4271 59.438 74.379 55.227 70.0006C51.2275 65.869 48.4261 60.9797 45.7832 53.4739C43.5015 46.9813 42.5853 37.6167 42.5853 32.701C42.5853 31.0624 42.5853 30.7189 42.6294 29.2389C42.7791 27.9527 39.3082 26.8779 35.5817 29.2829C31.3355 32.0139 27.1862 36.956 24.7284 39.8367C23.6624 41.0965 22.2088 42.9377 20.676 44.867C18.6498 47.4042 16.421 50.047 14.386 51.527C11.3379 53.703 6.41332 54.6456 2.95116 52.1965C1.03068 50.8311 -3.59191e-05 48.2411 -3.59191e-05 45.607C-0.0264646 43.7922 0.440442 42.0039 1.35663 40.427C2.53711 38.4008 4.40474 36.2248 7.42642 33.7317C11.4083 30.6396 15.8131 28.1289 20.4998 26.2788C28.1024 23.2219 36.2865 22.2617 41.7132 23.2307Z" fill="#1AA3C9"/>
<path d="M87.9457 45.8714C85.4174 45.8714 84.4748 44.3914 84.4748 42.4004V29.6354H81.9112C81.6733 29.6354 81.6733 29.2301 81.6733 28.8954C81.6733 28.5606 81.6733 28.1201 81.9112 28.1201H84.4748V23.7065C84.4748 23.5039 85.0474 23.5039 85.3822 23.5039C85.7169 23.5039 86.2895 23.5039 86.2895 23.7065V28.1201H90.2627C90.4653 28.1201 90.4653 28.4901 90.4653 28.8954C90.4653 29.3006 90.4653 29.6354 90.2627 29.6354H86.2895V42.3299C86.2895 43.7483 86.8974 44.2856 88.3774 44.2856H90.2274C90.4653 44.2856 90.5269 44.3561 90.5269 45.0256C90.5269 45.7656 90.4565 45.8714 90.2274 45.8714H87.9457Z" fill="black"/>
<path d="M94.8525 37.6521V39.4052C94.8525 42.6384 96.5703 44.6293 100.041 44.6293C102.667 44.6293 104.252 43.9245 105.565 43.211C105.838 43.0788 106.675 44.5236 106.34 44.7262C104.622 45.7041 102.499 46.2767 100.112 46.2767C95.663 46.2767 93.0377 43.7836 93.0377 39.5374V33.9786C93.0377 29.8733 95.9361 27.2393 99.7418 27.2393C103.847 27.2393 106.648 29.8645 106.648 34.3486V37.6521H94.8525ZM104.816 34.19C104.816 30.5869 102.49 28.8338 99.733 28.8338C97.0725 28.8338 94.8525 30.5869 94.8525 34.0843V36.1721H104.825V34.19H104.816Z" fill="black"/>
<path d="M114.181 45.8714C111.687 45.8714 110.71 44.3914 110.71 42.4005V20.8435C110.71 20.6409 111.282 20.6409 111.617 20.6409C111.952 20.6409 112.524 20.6409 112.524 20.8435V42.33C112.524 43.7483 113.167 44.3209 114.647 44.3209H115.555C115.793 44.3209 115.854 44.3914 115.854 45.0609C115.854 45.8009 115.784 45.8714 115.555 45.8714H114.181Z" fill="black"/>
<path d="M119.845 37.6521V39.4052C119.845 42.6384 121.563 44.6293 125.034 44.6293C127.659 44.6293 129.245 43.9245 130.558 43.211C130.831 43.0788 131.668 44.5236 131.333 44.7262C129.615 45.7041 127.492 46.2767 125.104 46.2767C120.656 46.2767 118.03 43.7836 118.03 39.5374V33.9786C118.03 29.8733 120.929 27.2393 124.734 27.2393C128.84 27.2393 131.641 29.8645 131.641 34.3486V37.6521H119.845ZM129.809 34.19C129.809 30.5869 127.483 28.8338 124.726 28.8338C122.065 28.8338 119.845 30.5869 119.845 34.0843V36.1721H129.818V34.19H129.809Z" fill="black"/>
<path d="M147.798 46.0124C147.463 46.0124 146.89 46.0124 146.89 45.8098V33.4412C146.89 30.4459 145.578 29.0628 143.384 29.0628C141.059 29.0628 138.9 31.0538 137.588 32.9743V45.8098C137.588 46.0124 137.015 46.0124 136.68 46.0124C136.345 46.0124 135.773 46.0124 135.773 45.8098V27.6885C135.773 27.4859 136.345 27.4859 136.68 27.4859C137.015 27.4859 137.552 27.4859 137.552 27.6885V30.9569C138.997 28.9042 141.226 27.248 143.922 27.248C146.855 27.248 148.705 29.4416 148.705 32.6395V45.8098C148.705 46.0124 148.133 46.0124 147.798 46.0124Z" fill="black"/>
<path d="M152.581 39.7136V33.82C152.581 29.5738 155.145 27.248 159.585 27.248C164.069 27.248 166.659 29.5738 166.659 33.82V39.7136C166.659 43.9245 164.069 46.2855 159.585 46.2855C155.145 46.2767 152.581 43.9245 152.581 39.7136ZM159.585 28.8954C156.352 28.8954 154.396 30.2785 154.396 34.1195V39.4052C154.396 43.211 156.352 44.6557 159.585 44.6557C162.853 44.6557 164.836 43.2726 164.836 39.4052V34.1195C164.844 30.3138 162.853 28.8954 159.585 28.8954Z" fill="black"/>
<path d="M177.169 29.4328C175.689 29.4328 174.438 30.7806 172.588 33.6085V45.8097C172.588 46.0123 172.015 46.0123 171.68 46.0123C171.346 46.0123 170.808 46.0123 170.808 45.8097V27.6885C170.808 27.4858 171.346 27.4858 171.68 27.4858C172.015 27.4858 172.526 27.4858 172.526 27.6885V31.7673C174.544 28.7016 175.627 27.5563 177.645 27.5563H178.314C178.517 27.5563 178.517 28.1994 178.517 28.5342C178.517 28.8689 178.446 29.4416 178.244 29.4416H177.169V29.4328Z" fill="black"/>
</g>
<defs>
<clipPath id="clip0_25_20">
<rect width="178.517" height="76" fill="white"/>
</clipPath>
</defs>
</svg>
